<svg xmlns="http://www.w3.org/2000/svg" viewBox="0 0 326.29 83.54"><defs><style>.cls-1{fill:#39b54a;}.cls-2{font-size:24.28px;font-family:Gilroy-Bold, Gilroy;font-weight:700;letter-spacing:-0.01em;}.cls-2,.cls-7{fill:#fff;}.cls-3{letter-spacing:-0.02em;}.cls-4{letter-spacing:-0.03em;}.cls-5{letter-spacing:0em;}.cls-6{letter-spacing:-0.03em;}</style></defs><title>WA Sticky ButtonAsset 9</title><g id="Layer_2" data-name="Layer 2"><g id="Layer_1-2" data-name="Layer 1"><rect class="cls-1" width="326.29" height="83.54" rx="41.25" ry="41.25"/><text class="cls-2" transform="translate(75.85 50.93)">Bi<tspan class="cls-3" x="20.2" y="0">c</tspan><tspan x="32.68" y="0">a</tspan><tspan class="cls-4" x="47.63" y="0">r</tspan><tspan x="55.57" y="0">a dengan </tspan><tspan class="cls-5" x="168.43" y="0">S</tspan><tspan x="182.68" y="0">al</tspan><tspan class="cls-6" x="203.39" y="0">e</tspan><tspan x="216.77" y="0">s</tspan></text><g id="logo"><path class="cls-7" d="M62.63,27.59a19.82,19.82,0,0,0-31.19,23.9L28.63,61.76,39.14,59a19.81,19.81,0,0,0,9.47,2.41h0a19.82,19.82,0,0,0,14-33.83Zm-14,30.48h0a16.45,16.45,0,0,1-8.38-2.3l-.6-.36-6.23,1.63L35.05,51l-.39-.62a16.47,16.47,0,1,1,14,7.72Zm9-12.33c-.5-.25-2.93-1.45-3.38-1.61s-.78-.25-1.11.25S51.87,46,51.58,46.32s-.58.37-1.07.12a13.52,13.52,0,0,1-4-2.46,14.92,14.92,0,0,1-2.75-3.43c-.29-.5,0-.76.22-1s.5-.58.74-.87a3.38,3.38,0,0,0,.5-.83.91.91,0,0,0,0-.87c-.12-.25-1.11-2.68-1.53-3.68s-.81-.83-1.11-.85l-.95,0a1.82,1.82,0,0,0-1.32.62,5.55,5.55,0,0,0-1.73,4.13,9.63,9.63,0,0,0,2,5.12c.25.33,3.49,5.33,8.46,7.47a28.42,28.42,0,0,0,2.82,1A6.79,6.79,0,0,0,55,51c1-.14,2.93-1.2,3.34-2.35a4.14,4.14,0,0,0,.29-2.35C58.47,46.11,58.14,46,57.65,45.74Z"/></g></g></g></svg>